<?xml version="1.0" encoding="utf-8"?>
<!-- Generator: Adobe Illustrator 22.1.0, SVG Export Plug-In . SVG Version: 6.00 Build 0)  -->
<svg version="1.1" id="Слой_1" xmlns="http://www.w3.org/2000/svg" xmlns:xlink="http://www.w3.org/1999/xlink" x="0px" y="0px"
	 viewBox="0 0 800 800" style="enable-background:new 0 0 800 800;" xml:space="preserve">
<style type="text/css">
	.st0{fill:#FFFFFF;}
</style>
<g id="Capa_1">
	<g>
		<path class="st0" d="M400,0C179.1,0,0,179.1,0,400s179.1,400,400,400s400-179.1,400-400S620.9,0,400,0z"/>
	</g>
	<g id="Page-1">
		<g id="Dribbble-Light-Preview" transform="translate(-420.000000, -7443.000000)">
			<g id="icons" transform="translate(56.000000, 160.000000)">
				<path id="google_x5F_plus-_x5B__x23_165_x5D_" d="M1054.1,7648.4V7582h-70.6v66.4h-70.6v66.4h70.6v66.4h70.6v-66.4h70.6v-66.4
					H1054.1z M856.3,7648.4c1.9,0,3.5,29,3.5,42.9c0,121-86.3,214.8-216.3,214.8c-124.5,0-225.3-94.8-225.3-211.9
					s100.7-212,225.3-212c60.8,0,111.7,20.5,150.9,55l-61.1,54.7c-16.7-15.1-46-34-89.8-34c-76.9,0-139.7,57.2-139.7,131
					s62.8,128.3,139.7,128.3c89.2,0,122.6-69.1,127.8-102.3H630.2v-66.4h226.1V7648.4z"/>
			</g>
		</g>
	</g>
</g>
</svg>
