<?xml version="1.0" encoding="utf-8"?>
<!-- Generator: Adobe Illustrator 22.1.0, SVG Export Plug-In . SVG Version: 6.00 Build 0)  -->
<svg version="1.1" id="Слой_1" xmlns="http://www.w3.org/2000/svg" xmlns:xlink="http://www.w3.org/1999/xlink" x="0px" y="0px"
	 viewBox="0 0 800 800" style="enable-background:new 0 0 800 800;" xml:space="preserve">
<style type="text/css">
	.st0{fill:#FFFFFF;}
</style>
<g id="Capa_1">
	<circle cx="403.8" cy="402.8" r="381.8"/>
	<g>
		<path class="st0" d="M400,0C179.1,0,0,179.1,0,400s179.1,400,400,400s400-179.1,400-400S620.9,0,400,0z M250.1,670.8H137.7V309
			h112.5L250.1,670.8L250.1,670.8z M193.9,259.6c-36,0-65.2-29.2-65.2-65.2s29.2-65.2,65.2-65.2c35.9,0,65.2,29.2,65.2,65.2
			C259.1,230.4,229.9,259.6,193.9,259.6z M671.3,670.8H558.9v-176c0-42-0.8-95.9-58.5-95.9c-58.5,0-67.5,45.7-67.5,92.9v179H320.6
			V309h107.9v49.4h1.5C445,330,481.7,300,536.4,300c113.9,0,134.9,74.9,134.9,172.3L671.3,670.8L671.3,670.8z"/>
	</g>
</g>
</svg>
