<svg xmlns="http://www.w3.org/2000/svg" viewBox="0 0 40.63 40.58"><defs><style>.cls-1{fill:none;stroke:#ef3734;stroke-miterlimit:10;}</style></defs><title>Ресурс 1</title><g id="Слой_2" data-name="Слой 2"><g id="Слой_2-2" data-name="Слой 2"><polygon class="cls-1" points="40.12 23.51 34.12 24.14 32.75 27.76 36.12 32.76 32.25 36.01 27.75 32.76 24 34.39 23.62 40.01 17.07 40.08 16.45 34.08 12.82 32.7 7.82 36.08 4.57 32.2 7.82 27.7 6.2 23.95 0.57 23.57 0.51 17.07 6.5 16.44 7.88 12.82 4.5 7.82 8.38 4.57 12.88 7.82 16.63 6.19 17 0.57 23.56 0.5 24.18 6.5 27.81 7.88 32.81 4.5 36.06 8.38 32.81 12.88 34.43 16.63 40.06 17 40.12 23.51"/><circle class="cls-1" cx="20.31" cy="20.29" r="4.88"/></g></g></svg>