<?xml version="1.0" encoding="utf-8"?>
<!-- Generator: Adobe Illustrator 22.1.0, SVG Export Plug-In . SVG Version: 6.00 Build 0)  -->
<svg version="1.1" id="Слой_1" xmlns="http://www.w3.org/2000/svg" xmlns:xlink="http://www.w3.org/1999/xlink" x="0px" y="0px"
	 viewBox="0 0 800 800" style="enable-background:new 0 0 800 800;" xml:space="preserve">
<style type="text/css">
	.st0{fill:#FFFFFF;}
</style>
<g id="Слой_2_1_">
	<circle cx="392.1" cy="393.9" r="361.3"/>
</g>
<g id="Capa_1">
	<g>
		<path class="st0" d="M400,0C179.1,0,0,179.1,0,400s179.1,400,400,400s400-179.1,400-400S620.9,0,400,0z M641.9,293.3
			c0.2,4.7,0.3,9.5,0.3,14.2c0,170.9-130,347.6-347.6,347.6c-66.5,0-131.3-19-187.3-54.9c-1.2-0.7-1.7-2.2-1.2-3.5s1.8-2.1,3.1-1.9
			c9.4,1.1,19,1.7,28.5,1.7c51.7,0,100.7-16,142.2-46.4c-49.7-4.2-92.4-37.8-107.7-85.8c-0.3-1-0.1-2.1,0.6-2.9
			c0.7-0.8,1.8-1.1,2.8-0.9c13.8,2.6,27.8,2.8,41.2,0.6c-51.2-15.9-87.2-63.9-87.2-118.5V341c0-1,0.6-2,1.5-2.5s2-0.5,2.9,0
			c13.4,7.4,28.1,12.2,43.3,14c-29.4-23.5-46.7-59-46.7-97.1c0-21.9,5.8-43.5,16.8-62.4c0.5-0.8,1.4-1.4,2.3-1.5
			c1-0.1,1.9,0.3,2.5,1.1c60.3,73.9,148.9,119.4,243.7,125.3c-1.6-8-2.4-16.2-2.4-24.4c0-68.4,55.7-124.1,124.1-124.1
			c33.6,0,66.1,13.8,89.4,38c26.3-5.4,51.3-15,74.4-28.7c1.1-0.6,2.4-0.5,3.4,0.2c0.9,0.8,1.3,2,1,3.2
			c-7.8,24.5-23.1,45.9-43.6,61.3c19.3-3.4,38.1-9,55.9-17c1.2-0.5,2.6-0.2,3.5,0.8s0.9,2.5,0.2,3.6
			C685.5,255.1,665.4,276.2,641.9,293.3z"/>
	</g>
</g>
</svg>
